<mxfile host="app.diagrams.net" modified="2022-04-19T16:46:06.866Z" agent="5.0 (Windows NT 10.0; Win64; x64) AppleWebKit/537.36 (KHTML, like Gecko) Chrome/100.0.4896.127 Safari/537.36" etag="cDiYTID3GTUDDb6TIv4l" version="17.4.5" type="github">
  <diagram id="R2lEEEUBdFMjLlhIrx00" name="Page-1">
    <mxGraphModel dx="620" dy="459" grid="1" gridSize="10" guides="1" tooltips="1" connect="1" arrows="1" fold="1" page="1" pageScale="1" pageWidth="850" pageHeight="1100" math="0" shadow="0" extFonts="Permanent Marker^https://fonts.googleapis.com/css?family=Permanent+Marker">
      <root>
        <mxCell id="0" />
        <mxCell id="1" parent="0" />
        <mxCell id="mTsoG2THXiuEzF5nvc4M-4" value="" style="rounded=0;whiteSpace=wrap;html=1;" vertex="1" parent="1">
          <mxGeometry x="120" y="140" width="520" height="370" as="geometry" />
        </mxCell>
        <mxCell id="mTsoG2THXiuEzF5nvc4M-5" value="App - Farmers Market" style="text;strokeColor=none;fillColor=none;spacingLeft=4;spacingRight=4;overflow=hidden;rotatable=0;points=[[0,0.5],[1,0.5]];portConstraint=eastwest;fontSize=12;" vertex="1" parent="1">
          <mxGeometry x="315" y="140" width="130" height="30" as="geometry" />
        </mxCell>
        <mxCell id="mTsoG2THXiuEzF5nvc4M-7" value="Header" style="whiteSpace=wrap;html=1;align=center;" vertex="1" parent="1">
          <mxGeometry x="330" y="180" width="100" height="40" as="geometry" />
        </mxCell>
        <mxCell id="mTsoG2THXiuEzF5nvc4M-8" value="" style="whiteSpace=wrap;html=1;align=center;" vertex="1" parent="1">
          <mxGeometry x="390" y="230" width="240" height="270" as="geometry" />
        </mxCell>
        <mxCell id="mTsoG2THXiuEzF5nvc4M-10" value="" style="whiteSpace=wrap;html=1;align=center;" vertex="1" parent="1">
          <mxGeometry x="130" y="230" width="240" height="270" as="geometry" />
        </mxCell>
        <mxCell id="mTsoG2THXiuEzF5nvc4M-11" value="Market SchedÂ  Control" style="text;strokeColor=none;fillColor=none;spacingLeft=4;spacingRight=4;overflow=hidden;rotatable=0;points=[[0,0.5],[1,0.5]];portConstraint=eastwest;fontSize=12;" vertex="1" parent="1">
          <mxGeometry x="185" y="230" width="130" height="30" as="geometry" />
        </mxCell>
        <mxCell id="mTsoG2THXiuEzF5nvc4M-12" value="Produce Control" style="text;strokeColor=none;fillColor=none;spacingLeft=4;spacingRight=4;overflow=hidden;rotatable=0;points=[[0,0.5],[1,0.5]];portConstraint=eastwest;fontSize=12;" vertex="1" parent="1">
          <mxGeometry x="462.5" y="230" width="107.5" height="30" as="geometry" />
        </mxCell>
        <mxCell id="mTsoG2THXiuEzF5nvc4M-14" value="" style="whiteSpace=wrap;html=1;align=center;" vertex="1" parent="1">
          <mxGeometry x="140" y="260" width="220" height="230" as="geometry" />
        </mxCell>
        <mxCell id="mTsoG2THXiuEzF5nvc4M-15" value="Market List" style="text;strokeColor=none;fillColor=none;spacingLeft=4;spacingRight=4;overflow=hidden;rotatable=0;points=[[0,0.5],[1,0.5]];portConstraint=eastwest;fontSize=12;align=center;" vertex="1" parent="1">
          <mxGeometry x="200" y="260" width="100" height="30" as="geometry" />
        </mxCell>
        <mxCell id="mTsoG2THXiuEzF5nvc4M-16" value="Market&amp;nbsp;&lt;br&gt;click market - display details" style="whiteSpace=wrap;html=1;align=center;" vertex="1" parent="1">
          <mxGeometry x="150" y="290" width="200" height="40" as="geometry" />
        </mxCell>
        <mxCell id="mTsoG2THXiuEzF5nvc4M-17" value="Market" style="whiteSpace=wrap;html=1;align=center;" vertex="1" parent="1">
          <mxGeometry x="150" y="340" width="200" height="40" as="geometry" />
        </mxCell>
        <mxCell id="mTsoG2THXiuEzF5nvc4M-18" value="Market" style="whiteSpace=wrap;html=1;align=center;" vertex="1" parent="1">
          <mxGeometry x="150" y="390" width="200" height="40" as="geometry" />
        </mxCell>
        <mxCell id="mTsoG2THXiuEzF5nvc4M-19" value="Market" style="whiteSpace=wrap;html=1;align=center;" vertex="1" parent="1">
          <mxGeometry x="150" y="440" width="200" height="40" as="geometry" />
        </mxCell>
        <mxCell id="mTsoG2THXiuEzF5nvc4M-23" value="" style="whiteSpace=wrap;html=1;align=center;" vertex="1" parent="1">
          <mxGeometry x="400" y="260" width="220" height="230" as="geometry" />
        </mxCell>
        <mxCell id="mTsoG2THXiuEzF5nvc4M-24" value="Avail produce" style="text;strokeColor=none;fillColor=none;spacingLeft=4;spacingRight=4;overflow=hidden;rotatable=0;points=[[0,0.5],[1,0.5]];portConstraint=eastwest;fontSize=12;align=center;" vertex="1" parent="1">
          <mxGeometry x="410" y="260" width="200" height="30" as="geometry" />
        </mxCell>
        <mxCell id="mTsoG2THXiuEzF5nvc4M-25" value="Month&lt;br&gt;click month - display selection" style="whiteSpace=wrap;html=1;align=center;" vertex="1" parent="1">
          <mxGeometry x="410" y="290" width="200" height="40" as="geometry" />
        </mxCell>
        <mxCell id="mTsoG2THXiuEzF5nvc4M-26" value="Month" style="whiteSpace=wrap;html=1;align=center;" vertex="1" parent="1">
          <mxGeometry x="410" y="340" width="200" height="40" as="geometry" />
        </mxCell>
        <mxCell id="mTsoG2THXiuEzF5nvc4M-27" value="Month" style="whiteSpace=wrap;html=1;align=center;" vertex="1" parent="1">
          <mxGeometry x="410" y="390" width="200" height="40" as="geometry" />
        </mxCell>
        <mxCell id="mTsoG2THXiuEzF5nvc4M-28" value="Month" style="whiteSpace=wrap;html=1;align=center;" vertex="1" parent="1">
          <mxGeometry x="410" y="440" width="200" height="40" as="geometry" />
        </mxCell>
      </root>
    </mxGraphModel>
  </diagram>
</mxfile>
